<svg width="164" height="164" viewBox="0 0 164 164" fill="none" xmlns="http://www.w3.org/2000/svg">
<g clip-path="url(#clip0)">
<path d="M36.3865 61.8409L8.45401 45.7141C3.05674 56.6211 0.000320313 68.9217 0 81.9994C0 94.8962 3.08941 107.218 8.56964 118.222L36.3846 102.163C33.6411 95.9852 32.0867 89.1716 32.087 81.9994C32.0873 74.8276 33.6427 68.0162 36.3865 61.8409Z" fill="white"/>
<path d="M135.789 20.1054C121.378 7.57028 102.547 -0.0137547 81.9434 1.87285e-05C53.7556 0.0189172 28.5963 14.4093 13.8142 36.4593L41.7695 52.5998C50.8603 40.1992 65.4854 32.0867 82.0011 32.087C94.0406 32.0873 105.077 36.391 113.697 43.5225C115.807 45.2679 118.892 45.108 120.828 43.1717L136.053 27.947C138.249 25.7515 138.131 22.1426 135.789 20.1054Z" fill="white"/>
<path d="M163.439 72.5122C163.119 69.7976 160.837 67.7428 158.104 67.7428L90.9134 67.7393C87.9601 67.7393 85.5654 70.1336 85.5654 73.0872V94.4607C85.5654 97.414 87.9598 99.8086 90.9134 99.8086H128.565C125.097 108.835 119.074 116.594 111.405 122.235L127.397 149.935C143.495 139.026 155.734 122.533 161.125 103.063C164.056 92.477 164.584 82.2404 163.439 72.5122Z" fill="white"/>
<path d="M102.157 127.606C95.9897 130.354 89.1811 131.913 82.001 131.913C65.4668 131.914 50.8499 123.801 41.7656 111.405L13.9294 127.476C28.5876 149.31 53.465 164 82.0003 164C94.9 164 107.178 160.847 118.16 155.325L102.157 127.606Z" fill="white"/>
</g>
<defs>
<clipPath id="clip0">
<rect width="164" height="164" fill="white"/>
</clipPath>
</defs>
</svg>
