<svg width="450" height="366" viewBox="0 0 450 366" fill="none" xmlns="http://www.w3.org/2000/svg">
<path d="M449.956 43.657C432.254 51.271 414.548 56.026 396.854 57.936C416.839 45.945 430.357 29.005 437.4 7.11703C419.119 17.964 399.613 25.385 378.868 29.384C360.594 9.97004 338.138 0.259033 311.485 0.259033C285.983 0.259033 264.239 9.25103 246.245 27.239C228.261 45.226 219.268 66.97 219.268 92.474C219.268 99.325 220.028 106.37 221.552 113.602C183.864 111.699 148.51 102.23 115.484 85.195C82.46 68.158 54.433 45.46 31.403 17.101C23.028 31.373 18.839 46.888 18.839 63.637C18.839 79.435 22.55 94.093 29.977 107.607C37.399 121.119 47.394 132.062 59.957 140.438C45.108 139.866 31.214 135.963 18.273 128.73V129.872C18.273 152.143 25.268 171.696 39.256 188.546C53.246 205.394 70.901 215.999 92.217 220.379C84.222 222.47 76.131 223.517 67.948 223.517C62.618 223.517 56.812 223.042 50.532 222.097C56.432 240.556 67.282 255.73 83.078 267.632C98.877 279.528 116.769 285.66 136.755 286.05C103.257 312.312 65.095 325.443 22.269 325.443C14.083 325.443 6.66202 325.07 -0.000976562 324.304C42.826 351.9 90.029 365.698 141.611 365.698C174.349 365.698 205.089 360.517 233.821 350.141C262.567 339.772 287.118 325.874 307.486 308.455C327.848 291.04 345.411 271.007 360.16 248.358C374.91 225.707 385.898 202.06 393.137 177.412C400.367 152.759 403.985 128.068 403.985 103.32C403.985 97.99 403.889 93.995 403.698 91.329C421.785 78.202 437.202 62.306 449.956 43.657Z" fill="white"/>
</svg>
